<?xml version="1.0" encoding="UTF-8"?> <svg xmlns="http://www.w3.org/2000/svg" width="36" height="36" viewBox="0 0 36 36" fill="none"> <circle cx="18" cy="18" r="17" stroke="black" stroke-width="2"></circle> <path d="M19.204 19.8742H16.7658L16.1348 12.5982V7.40106H19.8638V12.5982L19.204 19.8742Z" fill="black"></path> <path d="M17.9998 23.0051C18.5944 23.0051 19.1028 23.2161 19.5248 23.6381C19.9468 24.0601 20.1578 24.5684 20.1578 25.1631C20.1578 25.7577 19.9468 26.266 19.5248 26.688C19.1028 27.11 18.5944 27.321 17.9998 27.321C17.4051 27.321 16.8968 27.11 16.4748 26.688C16.0528 26.266 15.8418 25.7577 15.8418 25.1631C15.8418 24.5684 16.0432 24.0601 16.446 23.6381C16.868 23.2161 17.386 23.0051 17.9998 23.0051Z" fill="black"></path> </svg> 