<?xml version="1.0" encoding="UTF-8"?> <svg xmlns="http://www.w3.org/2000/svg" width="137" height="153" viewBox="0 0 137 153" fill="none"> <ellipse cx="81.2852" cy="133.5" rx="27.5" ry="6.5" fill="black"></ellipse> <path d="M31.6488 10.3769C32.7079 6.08741 37.0437 3.46863 41.3332 4.52767L100.5 19.1356L107.783 33L118.028 52.5L97.658 126.706C96.5114 130.883 92.2486 133.389 88.0412 132.359L14.2486 114.296C9.95097 113.244 7.32337 108.903 8.38391 104.608L31.6488 10.3769Z" fill="#F3F4F4"></path> <path fill-rule="evenodd" clip-rule="evenodd" d="M101.926 18.3331L119.259 51.2173C119.434 51.5487 119.481 51.9251 119.398 52.2617L100.686 128.05C99.3557 133.439 93.8889 136.755 88.5014 135.425L13.7868 116.978C8.39863 115.648 5.08624 110.164 6.41654 104.776L29.7243 10.3716C31.0726 4.98647 36.5399 1.67088 41.9271 3.00093L100.979 17.5805C101.396 17.6833 101.736 17.9561 101.926 18.3331ZM97.7961 127.337L116.372 52.0997L99.6267 20.3128L41.2135 5.89102C37.4195 4.9543 33.5559 7.27174 32.6145 11.0847L9.30663 105.489C8.36978 109.284 10.7058 113.152 14.5003 114.088L89.1971 132.531C92.9916 133.467 96.8592 131.131 97.7961 127.337Z" fill="black"></path> <path fill-rule="evenodd" clip-rule="evenodd" d="M80.9203 58.7902L80.919 58.7958C80.7406 59.5819 79.9253 60.0777 79.1364 59.883L37.8838 49.698C37.0781 49.499 36.5966 48.7019 36.7956 47.8962C36.9945 47.0904 37.7916 46.609 38.5974 46.8079L79.832 56.9884C80.6378 57.1874 81.1192 57.9845 80.9203 58.7902Z" fill="black"></path> <path fill-rule="evenodd" clip-rule="evenodd" d="M93.8957 85.5047L93.8944 85.5103C93.716 86.2964 92.9008 86.7922 92.1118 86.5974L32.4131 71.8582C31.6074 71.6593 31.1259 70.8622 31.3249 70.0564C31.5238 69.2507 32.3209 68.7692 33.1267 68.9682L92.8075 83.7029C93.6132 83.9019 94.0947 84.699 93.8957 85.5047Z" fill="black"></path> <path fill-rule="evenodd" clip-rule="evenodd" d="M88.423 107.665L88.4218 107.671C88.2433 108.457 87.4281 108.953 86.6391 108.758L26.9405 94.0185C26.1347 93.8196 25.6533 93.0225 25.8522 92.2167C26.0511 91.411 26.8483 90.9295 27.654 91.1284L87.3348 105.863C88.1405 106.062 88.622 106.859 88.423 107.665Z" fill="black"></path> <path d="M99.2656 18.9081L92.7938 45.121C92.5291 46.1933 93.1838 47.2773 94.2561 47.5421L118.527 53.5345" stroke="black" stroke-width="3"></path> </svg> 