<?xml version="1.0" encoding="UTF-8"?> <svg xmlns="http://www.w3.org/2000/svg" width="1440" height="733" viewBox="0 0 1440 733" fill="none"> <path d="M1219 644.5L1201.5 566.5L997.727 541.685L1006.72 615.11C1010.18 643.759 1031.45 662.588 1055 660L1219 644.5Z" fill="black"></path> <path d="M1116.62 587.896L1021.85 647.481C1016.35 648.648 982.722 572.404 961.791 525.083L917.826 351.411C914.991 342.071 920.661 332.398 930.167 330.23L963.689 322.892C1024.73 309.384 1085.27 350.243 1096.11 412.116L1124.63 575.722C1125.63 581.392 1121.96 586.729 1116.45 587.896H1116.62Z" fill="black"></path> <path d="M428.767 808.523L348.781 794.431L361.682 572.945L484.171 606.168L428.767 808.523Z" fill="black"></path> <path d="M408.582 799.408C408.582 799.408 472.666 680.159 501.321 606.985C539.219 510.205 579.491 364.41 579.491 364.41C582.994 355.38 578.317 345.059 569.183 341.873L592.123 326.078C532.827 305.661 417.143 343.925 397.205 404.432C397.205 404.432 363.988 514.296 354.087 564.59C344.187 614.884 331.541 787.015 336.874 788.948L408.582 799.408Z" fill="black"></path> <path d="M612.962 639.263C597.952 665.947 589.613 694.798 588.112 723.984L582.942 959.636H749.049L744.546 624.253L612.962 639.263Z" fill="black"></path> <path d="M877.298 637.261C894.643 660.943 905.65 687.127 909.986 714.311L940.506 959.636H749.216L744.713 624.253L877.465 637.261H877.298Z" fill="black"></path> <path d="M880.968 644.266C899.814 669.115 912.488 695.799 918.325 723.15L955.85 928.282C957.184 935.787 951.847 942.291 944.342 942.291H804.586C797.748 942.291 791.577 936.954 790.577 930.117L747.215 630.257L880.968 644.099V644.266Z" fill="black"></path> <path d="M609.793 644.266C593.449 669.115 583.609 695.799 580.607 723.15L564.097 928.282C563.43 935.787 569.6 942.291 577.105 942.291H716.862C723.7 942.291 729.203 936.954 729.537 930.117L742.045 630.257L609.793 644.099V644.266Z" fill="black"></path> <path d="M837.441 803.535H656.491C644.15 803.535 633.976 793.529 633.81 781.187L631.308 593.733H857.12L859.622 781.187C859.622 793.529 849.949 803.535 837.441 803.535Z" fill="black"></path> <path d="M719.698 265.522L474.874 336.734C449.691 344.073 443.353 369.089 444.021 395.105C445.021 430.628 459.03 464.65 482.879 491.334L512.696 511.432C512.696 511.432 543.637 631.1 590.958 713.002L895.36 728.018C954.057 641.566 972.194 491.334 972.194 491.334L983.868 466.151C1004.05 437.299 1013.72 401.943 1010.22 366.587C1007.55 340.737 998.044 316.555 972.194 311.718L719.865 265.522H719.698Z" fill="black"></path> <path d="M727.536 389.268C661.326 392.604 597.786 366.087 553.09 316.388C551.923 315.054 551.422 313.219 551.923 311.552C552.256 309.884 553.59 308.383 555.258 307.883L647.484 273.194C670.499 264.521 694.681 259.518 719.197 258.351C743.88 257.183 768.395 259.685 792.411 266.022L888.473 291.205C890.14 291.705 891.641 292.873 892.142 294.541C892.809 296.208 892.475 298.043 891.475 299.377C853.45 353.078 793.578 385.933 727.536 389.268Z" fill="black"></path> <path d="M840.11 298.543C815.093 328.229 773.4 348.742 725.202 351.244C676.171 353.745 631.475 336.901 602.79 309.05" fill="black"></path> <path d="M840.11 298.543C815.093 328.229 773.4 348.742 725.202 351.244C676.171 353.745 631.475 336.901 602.79 309.05" stroke="black" stroke-width="1.98352" stroke-miterlimit="10"></path> <path d="M817.093 267.69L802.917 244.342C808.087 251.846 816.092 252.013 816.092 252.013L812.256 233.668L767.895 242.34L768.562 252.68C778.902 269.358 795.412 271.359 795.412 271.359L788.741 251.68C794.745 266.022 817.093 267.857 817.093 267.857V267.69Z" fill="black"></path> <path d="M621.967 261.686C621.967 261.686 629.972 260.852 634.142 252.847L622.968 277.53C622.968 277.53 644.815 273.527 648.984 258.684L644.982 278.864C644.982 278.864 660.992 275.362 669.164 257.683L668.497 247.343L623.301 243.174L621.8 261.853L621.967 261.686Z" fill="black"></path> <path d="M700.518 49.0491C683.674 56.8875 626.637 88.7414 631.306 161.288L712.192 157.285L793.077 153.283C788.408 80.7362 727.702 54.7195 710.024 48.7156C706.855 47.715 703.52 47.8817 700.685 49.2159L700.518 49.0491Z" fill="black"></path> <path d="M795.914 162.122L629.473 170.461C624.637 170.627 620.634 166.958 620.301 162.289L618.299 129.601C617.632 119.261 625.471 110.589 635.644 110.088L782.238 102.75C792.578 102.25 801.417 110.088 802.084 120.428L804.086 153.116C804.419 157.953 800.75 161.955 795.914 162.289V162.122Z" fill="black"></path> <path d="M725.368 280.865L715.861 281.365C684.841 282.866 658.158 259.018 656.156 227.998L652.487 169.293L774.399 163.123L778.068 221.827C780.069 252.847 756.554 279.364 725.534 280.865H725.368Z" fill="black"></path> <path d="M763.226 253.014L736.875 250.179C721.866 248.511 711.025 235.169 712.36 220.159C712.526 217.991 714.528 216.324 716.862 216.49L743.213 219.325C758.222 220.993 769.063 234.335 767.729 249.345C767.562 251.513 765.56 253.181 763.226 253.014Z" fill="black"></path> <path d="M673.501 257.516L699.184 252.013C713.86 248.844 723.033 234.502 719.698 219.826C719.197 217.657 717.029 216.157 714.861 216.657L689.178 222.16C674.502 225.329 665.329 239.672 668.665 254.348C669.165 256.516 671.333 258.017 673.501 257.516Z" fill="black"></path> <path d="M715.195 180.634C715.195 180.634 708.857 190.307 706.523 206.817C706.523 206.984 706.523 207.318 706.523 207.485C706.356 211.154 709.191 214.322 712.36 214.156L721.699 213.655" fill="black"></path> <path d="M715.195 180.634C715.195 180.634 708.857 190.307 706.523 206.817C706.523 206.984 706.523 207.318 706.523 207.485C706.356 211.154 709.191 214.322 712.36 214.156L721.699 213.655" stroke="black" stroke-width="1.83094" stroke-linecap="round" stroke-linejoin="round"></path> <path d="M684.342 201.147C681.84 201.147 679.839 199.313 679.672 196.978L679.338 190.807C679.338 188.306 681.006 186.304 683.508 186.138C686.009 186.138 688.011 187.972 688.177 190.307L688.511 196.478C688.511 198.979 686.843 200.98 684.342 201.147Z" fill="black"></path> <path d="M746.382 197.979C743.88 197.979 741.879 196.144 741.712 193.809L741.378 187.639C741.378 185.137 743.046 183.136 745.548 182.969C748.049 182.969 750.051 184.803 750.217 187.138L750.551 193.309C750.551 195.81 748.883 197.812 746.382 197.979Z" fill="black"></path> <path d="M694.015 181.634L666.33 178.299" stroke="black" stroke-width="10.0702" stroke-linecap="round" stroke-linejoin="round"></path> <path d="M734.541 178.466L761.558 173.463" stroke="black" stroke-width="10.0702" stroke-linecap="round" stroke-linejoin="round"></path> <path d="M706.856 73.3982C701.185 73.7317 696.682 69.0621 696.849 63.3918L699.184 14.8605C699.184 12.8592 700.852 11.1915 702.853 11.1915C704.854 11.1915 706.689 12.5257 707.022 14.5269L715.528 62.5579C716.529 68.0614 712.526 73.2314 706.856 73.3982Z" fill="black"></path> <path d="M777.401 210.82L770.063 228.832C765.893 239.172 759.222 248.177 750.717 255.349L743.379 261.519C740.71 263.687 737.041 263.854 734.206 262.02L731.204 260.018C729.37 258.851 727.202 258.184 725.034 258.351L719.53 258.684L714.026 259.018C711.858 259.018 709.69 260.018 708.023 261.353L705.354 263.687C702.686 265.856 699.017 266.022 696.182 264.188L688.01 258.684C678.67 252.514 670.832 244.008 665.495 234.335L655.822 217.157L653.654 228.665C652.82 232.667 652.82 236.837 653.654 240.839L657.156 263.02C659.658 279.031 667.33 293.707 678.67 305.214L725.701 352.411L766.393 300.711C776.233 288.203 781.903 272.693 782.404 256.516L783.071 234.002C783.071 229.832 782.571 225.83 781.403 221.827L777.734 210.487L777.401 210.82Z" fill="black"></path> <path d="M637.644 147.613L632.808 143.276C630.973 141.775 630.806 138.94 632.474 137.273L636.643 132.603C638.144 130.935 640.813 130.768 642.647 132.269L647.484 136.605C649.318 138.106 649.485 140.942 647.817 142.609L643.648 147.279C642.147 148.947 639.479 149.114 637.644 147.613Z" fill="black" stroke="black" stroke-width="1.98352" stroke-linecap="round" stroke-linejoin="round"></path> <path d="M661.493 146.445L656.657 142.109C654.822 140.608 654.655 137.773 656.323 136.105L660.493 131.436C661.993 129.768 664.662 129.601 666.496 131.102L671.333 135.438C673.167 136.939 673.334 139.774 671.666 141.442L667.497 146.112C665.996 147.78 663.328 147.946 661.493 146.445Z" fill="black" stroke="black" stroke-width="1.98352" stroke-linecap="round" stroke-linejoin="round"></path> <path d="M685.175 145.278L680.338 140.942C678.504 139.441 678.337 136.606 680.005 134.938L684.174 130.268C685.675 128.6 688.344 128.434 690.178 129.935L695.015 134.271C696.849 135.772 697.016 138.607 695.348 140.275L691.179 144.944C689.678 146.612 687.009 146.779 685.175 145.278Z" fill="black" stroke="black" stroke-width="1.98352" stroke-linecap="round" stroke-linejoin="round"></path> <path d="M708.857 144.11L704.021 139.774C702.186 138.273 702.02 135.438 703.687 133.77L707.857 129.101C709.358 127.433 712.026 127.266 713.861 128.767L718.697 133.103C720.532 134.604 720.698 137.439 719.031 139.107L714.861 143.777C713.36 145.445 710.692 145.611 708.857 144.11Z" fill="black" stroke="black" stroke-width="1.98352" stroke-linecap="round" stroke-linejoin="round"></path> <path d="M732.54 142.943L727.703 138.607C725.869 137.106 725.702 134.271 727.37 132.603L731.539 127.933C733.04 126.266 735.708 126.099 737.543 127.6L742.379 131.936C744.214 133.437 744.381 136.272 742.713 137.94L738.543 142.609C737.042 144.277 734.374 144.444 732.54 142.943Z" fill="black" stroke="black" stroke-width="1.98352" stroke-linecap="round" stroke-linejoin="round"></path> <path d="M756.221 141.775L751.384 137.439C749.55 135.938 749.383 133.103 751.051 131.435L755.22 126.766C756.721 125.098 759.389 124.931 761.224 126.432L766.06 130.768C767.895 132.269 768.062 135.105 766.394 136.772L762.225 141.442C760.724 143.11 758.055 143.276 756.221 141.775Z" fill="black" stroke="black" stroke-width="1.98352" stroke-linecap="round" stroke-linejoin="round"></path> <path d="M780.069 140.441L775.233 136.105C773.398 134.604 773.232 131.769 774.899 130.101L779.069 125.432C780.57 123.764 783.238 123.597 785.073 125.098L789.909 129.434C791.744 130.935 791.91 133.77 790.243 135.438L786.073 140.108C784.572 141.776 781.904 141.942 780.069 140.441Z" fill="black" stroke="black" stroke-width="1.98352" stroke-linecap="round" stroke-linejoin="round"></path> <path d="M794.746 167.459L816.593 225.496C818.094 229.665 815.926 234.168 811.757 235.336L777.568 246.009C776.067 246.51 774.399 245.342 774.399 243.675L774.066 162.956L786.907 162.289C790.243 162.122 793.412 164.123 794.579 167.292L794.746 167.459Z" fill="black"></path> <path d="M633.142 175.631L618.799 235.503C617.798 239.672 620.467 244.008 624.803 244.842L660.159 252.013C661.827 252.347 663.161 251.013 662.994 249.345L652.988 169.127L640.146 169.794C636.811 169.96 633.975 172.295 633.142 175.464V175.631Z" fill="black"></path> <path d="M632.308 676.787H858.12" stroke="black" stroke-width="1.98352" stroke-miterlimit="10"></path> <path d="M951.013 513.015L983.868 466.151" stroke="black" stroke-width="1.98352" stroke-linecap="round" stroke-linejoin="round"></path> <path d="M521.57 534.695L483.045 491.334" stroke="black" stroke-width="1.98352" stroke-linecap="round" stroke-linejoin="round"></path> <path d="M1256.93 644.149L1184.02 647.985C1176.73 648.316 1170.3 642.795 1169.81 635.546L1166.63 588.166C1166.13 580.917 1171.69 574.653 1178.98 574.322L1251.89 570.485C1259.18 570.154 1265.61 575.675 1266.1 582.924L1269.29 630.305C1269.78 637.554 1264.22 643.818 1256.93 644.149Z" fill="black"></path> <path d="M1342.97 1304.64L1296.28 1385.59L1237.25 1313.23L1184.36 667.085L1290.08 658.502L1342.97 1304.64Z" fill="black"></path> <path d="M1346.16 641.051L1125.24 658.985C1124.14 659.074 1123.32 660.04 1123.41 661.141L1124.56 675.271C1124.64 676.372 1125.61 677.193 1126.71 677.103L1347.63 659.17C1348.73 659.08 1349.55 658.115 1349.46 657.013L1348.31 642.884C1348.22 641.782 1347.26 640.962 1346.16 641.051Z" fill="black"></path> <path d="M1224.54 637.215C1220.26 635.508 1215.41 637.591 1213.71 641.868C1212 646.145 1214.08 650.997 1218.36 652.704L1248.56 664.76C1252.84 666.467 1257.69 664.383 1259.4 660.106C1261.11 655.829 1259.02 650.978 1254.75 649.27L1224.54 637.215Z" fill="black"></path> <path d="M1223.12 618.698C1218.84 616.991 1213.99 619.074 1212.28 623.352C1210.58 627.629 1212.66 632.48 1216.94 634.187L1247.14 646.243C1251.42 647.95 1256.27 645.867 1257.98 641.59C1259.68 637.312 1257.6 632.461 1253.32 630.754L1223.12 618.698Z" fill="black"></path> <path d="M1221.53 600.22C1217.26 598.513 1212.41 600.596 1210.7 604.873C1208.99 609.15 1211.08 614.002 1215.35 615.709L1245.56 627.765C1249.83 629.472 1254.68 627.388 1256.39 623.111C1258.1 618.834 1256.02 613.983 1251.74 612.275L1221.53 600.22Z" fill="black"></path> <path d="M1220.05 581.749C1215.77 580.042 1210.92 582.125 1209.21 586.402C1207.51 590.679 1209.59 595.531 1213.87 597.238L1244.07 609.294C1248.35 611.001 1253.2 608.917 1254.91 604.64C1256.61 600.363 1254.53 595.512 1250.25 593.804L1220.05 581.749Z" fill="black"></path> <path d="M1218.62 563.332C1214.34 561.625 1209.49 563.708 1207.78 567.985C1206.08 572.263 1208.16 577.114 1212.44 578.821L1242.64 590.877C1246.92 592.584 1251.77 590.501 1253.48 586.223C1255.18 581.946 1253.1 577.095 1248.82 575.388L1218.62 563.332Z" fill="black"></path> <path d="M1217.04 544.854C1212.76 543.146 1207.91 545.23 1206.2 549.507C1204.49 553.784 1206.58 558.635 1210.85 560.343L1241.06 572.398C1245.33 574.106 1250.19 572.022 1251.89 567.745C1253.6 563.468 1251.52 558.616 1247.24 556.909L1217.04 544.854Z" fill="black"></path> <path d="M1223.02 529.32C1218.74 527.613 1213.89 529.697 1212.18 533.974C1210.48 538.251 1212.56 543.102 1216.84 544.81L1239.45 553.836C1243.73 555.543 1248.58 553.46 1250.29 549.183C1252 544.905 1249.91 540.054 1245.63 538.347L1223.02 529.32Z" fill="black"></path> <path d="M1213.47 496.976L1199.33 513.624C1194.02 519.871 1194.78 529.238 1201.02 534.546L1217.67 548.694C1223.92 554.003 1233.29 553.242 1238.59 546.996L1252.74 530.348C1258.05 524.102 1257.29 514.734 1251.04 509.426L1234.4 495.278C1228.15 489.969 1218.78 490.73 1213.47 496.976Z" fill="black"></path> <path d="M1222.04 503.38L1207.03 521.045C1205.83 522.448 1206 524.553 1207.41 525.746L1225.07 540.758C1226.48 541.951 1228.58 541.78 1229.77 540.376L1244.79 522.712C1245.98 521.308 1245.81 519.203 1244.4 518.01L1226.74 502.998C1225.34 501.806 1223.23 501.976 1222.04 503.38Z" fill="black"></path> <path d="M1257.56 665.923L1274.26 870.96L1257.51 909.979L1234.61 874.224L1217.75 669.225" fill="black"></path> <path d="M1257.56 665.923L1274.26 870.96L1257.51 909.978L1234.61 874.224L1217.75 669.225" stroke="black" stroke-width="1.83094" stroke-miterlimit="10"></path> <path d="M1272.69 635.334L1246.93 637.237C1240.85 637.627 1235.54 633.216 1234.99 627.18C1234.44 621.143 1239.05 615.957 1245.08 615.404L1270.84 613.5C1276.92 613.11 1282.23 617.521 1282.78 623.557C1283.33 629.594 1278.72 634.781 1272.69 635.334Z" fill="black"></path> <path d="M1272.95 615.92L1247.19 617.823C1241.12 618.214 1235.81 613.802 1235.25 607.766C1234.7 601.73 1239.31 596.543 1245.35 595.99L1271.11 594.087C1277.18 593.696 1282.49 598.108 1283.04 604.144C1283.6 610.18 1278.99 615.367 1272.95 615.92Z" fill="black"></path> <path d="M1273.74 596.555L1247.98 598.458C1241.91 598.849 1236.59 594.437 1236.04 588.401C1235.49 582.365 1240.1 577.178 1246.14 576.625L1271.89 574.721C1277.97 574.331 1283.28 578.742 1283.83 584.779C1284.39 590.815 1279.77 596.002 1273.74 596.555Z" fill="black"></path> <path d="M1267.93 577.532L1242.17 579.435C1236.09 579.826 1230.78 575.414 1230.23 569.378C1229.68 563.342 1234.29 558.155 1240.32 557.602L1266.08 555.698C1272.16 555.308 1277.47 559.719 1278.02 565.756C1278.57 571.792 1273.96 576.979 1267.93 577.532Z" fill="black"></path> <path d="M1161.55 594.317C1154.18 586.96 1154.17 575.148 1161.52 567.779L1175.45 554.08C1182.84 546.874 1194.7 547.018 1202.06 554.375C1209.43 561.731 1209.45 573.544 1202.09 580.913L1188.17 594.611C1180.77 601.818 1168.92 601.673 1161.55 594.317Z" fill="black"></path> <path d="M1186.15 547.815C1189.58 540.506 1198.29 537.446 1205.79 541.002L1228.12 551.545C1235.43 554.977 1238.69 563.806 1235.26 571.115C1231.83 578.424 1223.12 581.484 1215.61 577.928L1193.29 567.385C1185.98 563.953 1182.72 555.124 1186.15 547.815Z" fill="black"></path> <path d="M1005.21 612.412L1112.95 588.73" stroke="black" stroke-width="1.98352" stroke-linecap="round" stroke-linejoin="round"></path> <path d="M719.59 15.4742L706.208 3.92306C703.697 1.75642 699.906 2.03481 697.74 4.54489L686.188 17.9271C684.022 20.4372 684.3 24.2284 686.81 26.3951L700.192 37.9462C702.702 40.1129 706.494 39.8345 708.66 37.3244L720.212 23.9422C722.378 21.4321 722.1 17.6409 719.59 15.4742Z" fill="black"></path> <circle cx="374.5" cy="676.5" r="264.5" fill="black"></circle> </svg> 