<?xml version="1.0" encoding="UTF-8"?> <svg xmlns="http://www.w3.org/2000/svg" width="132" height="150" viewBox="0 0 132 150" fill="none"> <ellipse cx="68.5" cy="142.896" rx="27.5" ry="6.5" fill="black"></ellipse> <path d="M50.2155 144.056L123.512 117.379C127.663 115.868 129.804 111.277 128.293 107.125L105.72 45.1053C104.208 40.9534 99.6177 38.8127 95.4659 40.3239L22.1699 67.0014C18.0181 68.5126 15.8774 73.1033 17.3885 77.2552L39.9618 139.275C41.473 143.427 46.0637 145.567 50.2155 144.056Z" fill="#F3F4F4" stroke="black" stroke-width="3.2"></path> <path d="M79.112 94.4572L78.1064 93.2127L76.976 94.126L77.7767 95.3388L79.112 94.4572ZM73.3548 96.4564L74.949 96.3206L74.8256 94.8727L73.3726 94.8565L73.3548 96.4564ZM74.6062 111.141L73.0119 111.277L73.0119 111.277L74.6062 111.141ZM87.2317 106.756L88.567 105.875L88.567 105.875L87.2317 106.756ZM80.445 85.0268C81.4965 88.0545 80.4675 91.305 78.1064 93.2127L80.1175 95.7018C83.495 92.9728 84.976 88.3197 83.4678 83.9769L80.445 85.0268ZM71.0268 80.4641C74.8875 79.1233 79.1042 81.1661 80.445 85.0268L83.4678 83.9769C81.5472 78.4468 75.5071 75.5206 69.9769 77.4412L71.0268 80.4641ZM66.4641 89.8823C65.1233 86.0216 67.1661 81.8049 71.0268 80.4641L69.9769 77.4412C64.4468 79.3618 61.5206 85.4019 63.4412 90.9321L66.4641 89.8823ZM73.3726 94.8565C70.3376 94.8228 67.5155 92.9098 66.4641 89.8823L63.4412 90.9321C64.9493 95.2746 68.9953 98.008 73.337 98.0563L73.3726 94.8565ZM76.2004 111.005L74.949 96.3206L71.7606 96.5923L73.0119 111.277L76.2004 111.005ZM75.4057 110.489C75.7754 110.361 76.1672 110.615 76.2004 111.005L73.0119 111.277C73.156 112.967 74.8534 114.069 76.4555 113.512L75.4057 110.489ZM86.2004 106.74L75.4057 110.489L76.4555 113.512L87.2502 109.763L86.2004 106.74ZM85.8965 107.638C85.6809 107.311 85.8306 106.869 86.2004 106.74L87.2502 109.763C88.8524 109.207 89.5015 107.29 88.567 105.875L85.8965 107.638ZM77.7767 95.3388L85.8965 107.638L88.567 105.875L80.4472 93.5757L77.7767 95.3388Z" fill="black"></path> <path d="M37.5469 62.4688L31.5615 46.0242C27.1225 33.8282 33.4108 20.3429 45.6068 15.9039V15.9039C57.8028 11.465 71.2881 17.7533 75.7271 29.9492L81.7124 46.3939" stroke="black" stroke-width="3.2"></path> </svg> 