<?xml version="1.0" encoding="UTF-8"?> <svg xmlns="http://www.w3.org/2000/svg" width="101" height="36" viewBox="0 0 101 36" fill="none"> <path d="M21.0504 18.799L21.2184 14.704H21.0294L18.2994 22.243L15.5694 14.704H15.3804L15.5484 18.799V25.33H12.8184V10.672H16.5354L18.3414 15.607H18.5094L20.3154 10.672H23.7804V25.33H21.0504V18.799Z" fill="#1D2331"></path> <path d="M26.7152 25.33V22.789H30.6632V12.961H30.4742L27.4922 16.867L25.4762 15.292L28.9832 10.672H33.8132V22.789H36.9212V25.33H26.7152Z" fill="#1D2331"></path> <path d="M43.783 25.582C41.823 25.582 40.374 24.917 39.436 23.587C38.512 22.257 38.05 20.395 38.05 18.001C38.05 15.607 38.512 13.745 39.436 12.415C40.374 11.085 41.823 10.42 43.783 10.42C45.743 10.42 47.185 11.085 48.109 12.415C49.047 13.745 49.516 15.607 49.516 18.001C49.516 20.395 49.047 22.257 48.109 23.587C47.185 24.917 45.743 25.582 43.783 25.582ZM43.783 23.104C44.721 23.104 45.372 22.775 45.736 22.117C46.1139 21.459 46.303 20.542 46.303 19.366V16.636C46.303 15.46 46.1139 14.543 45.736 13.885C45.372 13.227 44.721 12.898 43.783 12.898C42.845 12.898 42.187 13.227 41.809 13.885C41.445 14.543 41.263 15.46 41.263 16.636V19.366C41.263 20.542 41.445 21.459 41.809 22.117C42.187 22.775 42.845 23.104 43.783 23.104ZM43.783 19.24C43.293 19.24 42.95 19.142 42.754 18.946C42.572 18.75 42.481 18.512 42.481 18.232V17.77C42.481 17.49 42.572 17.252 42.754 17.056C42.95 16.86 43.293 16.762 43.783 16.762C44.273 16.762 44.609 16.86 44.791 17.056C44.9869 17.252 45.085 17.49 45.085 17.77V18.232C45.085 18.512 44.9869 18.75 44.791 18.946C44.609 19.142 44.273 19.24 43.783 19.24Z" fill="#1D2331"></path> <path d="M53.1647 20.416V17.434H59.8848V20.416H53.1647Z" fill="#1D2331"></path> <path d="M64.5415 25.33V22.999H67.6915V13.003H64.5415V10.672H73.9915V13.003H70.8415V22.999H73.9915V25.33H64.5415Z" fill="#1D2331"></path> <path d="M77.0523 10.672H81.7773C83.7513 10.672 85.2143 11.302 86.1663 12.562C87.1183 13.822 87.5943 15.635 87.5943 18.001C87.5943 20.367 87.1183 22.18 86.1663 23.44C85.2143 24.7 83.7513 25.33 81.7773 25.33H77.0523V10.672ZM81.5673 22.852C82.5053 22.852 83.1913 22.551 83.6253 21.949C84.0593 21.347 84.2763 20.472 84.2763 19.324V16.657C84.2763 15.523 84.0593 14.655 83.6253 14.053C83.1913 13.451 82.5053 13.15 81.5673 13.15H80.1603V22.852H81.5673Z" fill="#1D2331"></path> <rect x="1" y="1" width="99" height="34" rx="17" stroke="#1D2331" stroke-width="2"></rect> </svg> 