<?xml version="1.0" encoding="UTF-8"?> <svg xmlns="http://www.w3.org/2000/svg" width="183" height="183" viewBox="0 0 183 183" fill="none"> <path d="M117.015 104.793C127.628 91.0313 121.344 72.2584 122.157 62.5036C123.004 52.3502 122.866 44.1273 115.881 43.8921C108.897 43.657 108.192 50.8827 107.724 58.1837C107.356 63.9193 105.837 72.4584 105.655 72.4399C105.473 72.4216 88.8764 34.4832 86.0102 28.4058C82.8206 21.6417 75.6792 19.9825 74.2188 26.1948C72.6593 32.8289 87.6375 64.0763 86.8283 62.9375C86.019 61.7985 71.9434 41.8087 66.3621 33.6763M74.6313 68.7174C76.4485 70.9899 60.9592 53.5154 57.7227 50.1542M58.9676 87.1819C65.3517 94.9041 66.6973 98.7367 79.1829 112.394C82.1621 115.28 90.5161 120.568 101.036 118.171" stroke="black" stroke-width="3.44"></path> <path d="M105.665 72.4854C102.584 74.1884 99.628 77.4949 97.791 83.5196" stroke="black" stroke-width="3.44" stroke-linecap="round"></path> <path d="M95.209 119.17L108.011 146.478" stroke="black" stroke-width="3.44"></path> <path d="M120.213 98.4534L142.256 131.554C142.256 131.554 135.576 143.339 122.797 149.215C86.4758 165.914 90.3296 144.482 103.438 137.737" stroke="black" stroke-width="3.44"></path> <path d="M94.6997 150.739C92.072 144.823 100.384 140.699 105.86 137.987L113.156 152.603C111.358 153.972 98.7906 159.949 94.6997 150.739Z" fill="black"></path> <rect x="51.6125" y="9.6125" width="61.9688" height="115.309" rx="8.3875" fill="#F3F4F4" stroke="black" stroke-width="3.225"></rect> <path d="M66 52.0073L75.5574 52.0049" stroke="black" stroke-width="3.2"></path> <path d="M86.4805 52.0024L96.0379 52" stroke="black" stroke-width="3.2"></path> <path d="M75.5645 75.5571C90.8794 75.5533 101.504 66.6759 101.502 59.8492" stroke="black" stroke-width="3.2"></path> <path d="M71.9297 18.0754C71.9297 16.4387 73.2564 15.112 74.893 15.112H90.3025C91.9391 15.112 93.2658 16.4387 93.2658 18.0754V18.0754C93.2658 19.712 91.9391 21.0387 90.3025 21.0387H74.893C73.2564 21.0387 71.9297 19.712 71.9297 18.0754V18.0754Z" fill="black"></path> <circle cx="49" cy="70" r="6.3875" fill="#F3F4F4" stroke="black" stroke-width="3.225"></circle> <circle cx="49" cy="84" r="6.3875" fill="#F3F4F4" stroke="black" stroke-width="3.225"></circle> <circle cx="49" cy="98" r="6.3875" fill="#F3F4F4" stroke="black" stroke-width="3.225"></circle> </svg> 